# xmcd CD database file
#
# Track frame offsets:
#	180
#	11190
#	23074
#	35322
#	47599
#	61712
#	73584
#	87821
#	100187
#	112848
#	123848
#	135853
#	148993
#	157742
#	169704
#	182097
#	196849
#	210294
#	223355
#	235875
#	249843
#	261778
#	275868
#	286747
#	300937
#	314077
#
# Disc length: 4348 seconds
#
# Revision: 0
# Processed by: cddbd v1.5.2PL0 Copyright (c) Steve Scherf et al.
# Submitted via: CDex 1.51
#
DISCID=6010fa1a
DTITLE=Country Trail - CD 9
DYEAR=1900
DGENRE=Country
TTITLE0=Radio Cowboys - Mississippi Muddle
TTITLE1=Hank Penny - I´m counting the Days
TTITLE2=Hank Williams - Cold cold Heart
TTITLE3=Shelly Lee Alley - Lowe dowen Blues
TTITLE4=Ernest Phipps - Don´t grieve after Me
TTITLE5=Tennessee Ernie Ford - Ocean of Tears
TTITLE6=Woody Guthrie - Prety Boy Floyd
TTITLE7=Walker´s Corbin Ramblers - Ruffels and Blues
TTITLE8=Texas Top Hands - 12th Street Rag
TTITLE9=Hank Thompson - Humpty Dumpty Heart
TTITLE10=Jesse James - Darlinhg i don´t Understand
TTITLE11=The Delmore Brothers - Barnyard Boogie
TTITLE12=Johnny Bond - Out on the open Range
TTITLE13=Johnny Bond - Sick, Sober and Sorry
TTITLE14=Lefty Frizzel - I Love you a thousand Way
TTITLE15=Sons of the Pioneers - Riders in the Sky
TTITLE16=The Allen Brothers - Ain´t that Skippin and Flyin
TTITLE17=Curley Williams - Southern Belle
TTITLE18=Milton Brown - Taking off
TTITLE19=Bill Monroe - Blue Moon of Kentucky
TTITLE20=Keith Loyd - My Western Union Baby
TTITLE21=The Carter Family - Bye and Bye
TTITLE22=Johnny Hicks - Get your Kicks
TTITLE23=Woody Guthrie - Dusty old Dust
TTITLE24=The Carter Family - John Hardy
TTITLE25=Johnny Bond - Heart and Soul
EXTD=
EXTT0=
EXTT1=
EXTT2=
EXTT3=
EXTT4=
EXTT5=
EXTT6=
EXTT7=
EXTT8=
EXTT9=
EXTT10=
EXTT11=
EXTT12=
EXTT13=
EXTT14=
EXTT15=
EXTT16=
EXTT17=
EXTT18=
EXTT19=
EXTT20=
EXTT21=
EXTT22=
EXTT23=
EXTT24=
EXTT25=
PLAYORDER=
